<svg id="kity_svg_6" xmlns="http://www.w3.org/2000/svg" xmlns:xlink="http://www.w3.org/1999/xlink" version="1.1" width="1205" height="1833" style="background: rgb(251, 251, 251); visibility: visible;" viewBox="0 0 1205 1833"><defs id="kity_defs_7"><linearGradient id="kity_linearGradient_17" x1="0" y1="0" x2="0" y2="1"><stop id="kity_stop_18" offset="0" stop-color="rgb(255, 255, 255)"></stop><stop id="kity_stop_19" offset="1" stop-color="rgb(204, 204, 204)"></stop></linearGradient><marker id="kity_marker_2" orient="auto" refX="6" refY="0" viewBox="-7 -7 14 14" markerWidth="7" markerHeight="7" markerUnits="userSpaceOnUse"><path id="kity_path_3" fill="rgb(115, 191, 118)" stroke="none" d="M6,0A6,6,0,1,1,-6,0A6,6,0,1,1,6,0"></path></marker></defs><g id="kity_g_8"><g id="minder1" text-rendering="optimize-speed"><g id="minder_connect_group1"><path id="kity_path_32" fill="none" stroke="rgb(115, 191, 118)" stroke-width="1" d="M802.0000292211771,1050.5000063329935A153.5,0,0,0,1,955.5000292211771,1050.5000063329935"></path><path id="kity_path_40" fill="none" stroke="rgb(115, 191, 118)" stroke-width="1" d="M802.0000292211771,1050.5000063329935A156.5,0,0,0,1,645.5000292211771,1050.5000063329935"></path><path id="kity_path_48" fill="none" stroke="rgb(115, 191, 118)" stroke-width="1" d="M1048.500029221177,1050.5000063329935C1063.500029221177,1050.5000063329935,1063.500029221177,856.5000063329935,1078.500029221177,856.5000063329935L1162.500029221177,856.5000063329935"></path><path id="kity_path_56" fill="none" stroke="rgb(115, 191, 118)" stroke-width="1" d="M1048.500029221177,1050.5000063329935C1063.500029221177,1050.5000063329935,1063.500029221177,908.5000063329935,1078.500029221177,908.5000063329935L1159.500029221177,908.5000063329935"></path><path id="kity_path_64" fill="none" stroke="rgb(115, 191, 118)" stroke-width="1" d="M1048.500029221177,1050.5000063329935C1063.500029221177,1050.5000063329935,1063.500029221177,960.5000063329935,1078.500029221177,960.5000063329935L1156.500029221177,960.5000063329935"></path><path id="kity_path_72" fill="none" stroke="rgb(115, 191, 118)" stroke-width="1" d="M1048.500029221177,1050.5000063329935C1063.500029221177,1050.5000063329935,1063.500029221177,1012.5000063329935,1078.500029221177,1012.5000063329935L1149.500029221177,1012.5000063329935"></path><path id="kity_path_80" fill="none" stroke="rgb(115, 191, 118)" stroke-width="1" d="M1048.500029221177,1050.5000063329935C1063.500029221177,1050.5000063329935,1063.500029221177,1064.5000063329935,1078.500029221177,1064.5000063329935L1185.500029221177,1064.5000063329935"></path><path id="kity_path_88" fill="none" stroke="rgb(115, 191, 118)" stroke-width="1" d="M1048.500029221177,1050.5000063329935C1063.500029221177,1050.5000063329935,1063.500029221177,1116.5000063329935,1078.500029221177,1116.5000063329935L1179.500029221177,1116.5000063329935"></path><path id="kity_path_96" fill="none" stroke="rgb(115, 191, 118)" stroke-width="1" d="M1048.500029221177,1050.5000063329935C1063.500029221177,1050.5000063329935,1063.500029221177,1168.5000063329935,1078.500029221177,1168.5000063329935L1173.500029221177,1168.5000063329935"></path><path id="kity_path_104" fill="none" stroke="rgb(115, 191, 118)" stroke-width="1" d="M1048.500029221177,1050.5000063329935C1063.500029221177,1050.5000063329935,1063.500029221177,1220.5000063329935,1078.500029221177,1220.5000063329935L1171.500029221177,1220.5000063329935"></path><path id="kity_path_112" fill="none" stroke="rgb(115, 191, 118)" stroke-width="1" d="M1048.500029221177,1050.5000063329935C1063.500029221177,1050.5000063329935,1063.500029221177,1272.5000063329935,1078.500029221177,1272.5000063329935L1185.500029221177,1272.5000063329935"></path><path id="kity_path_120" fill="none" stroke="rgb(115, 191, 118)" stroke-width="1" d="M577.5000292211771,1050.5000063329935C562.5000292211771,1050.5000063329935,562.5000292211771,473.5000063329935,547.5000292211771,473.5000063329935L470.5000292211771,473.5000063329935"></path><path id="kity_path_128" fill="none" stroke="rgb(115, 191, 118)" stroke-width="1" d="M577.5000292211771,1050.5000063329935C562.5000292211771,1050.5000063329935,562.5000292211771,1656.5000063329935,547.5000292211771,1656.5000063329935L451.5000292211771,1656.5000063329935"></path><path id="kity_path_136" fill="none" stroke="rgb(115, 191, 118)" stroke-width="1" d="M470.5000292211771,473.5000063329935C455.5000292211771,473.5000063329935,455.5000292211771,44.50000633299351,440.5000292211771,44.50000633299351L337.5000292211771,44.50000633299351"></path><path id="kity_path_152" fill="none" stroke="rgb(115, 191, 118)" stroke-width="1" d="M470.5000292211771,473.5000063329935C455.5000292211771,473.5000063329935,455.5000292211771,174.5000063329935,440.5000292211771,174.5000063329935L363.5000292211771,174.5000063329935"></path><path id="kity_path_160" fill="none" stroke="rgb(115, 191, 118)" stroke-width="1" d="M363.5000292211771,174.5000063329935C348.5000292211771,174.5000063329935,348.5000292211771,96.50000633299351,333.5000292211771,96.50000633299351L294.5000292211771,96.50000633299351"></path><path id="kity_path_168" fill="none" stroke="rgb(115, 191, 118)" stroke-width="1" d="M363.5000292211771,174.5000063329935C348.5000292211771,174.5000063329935,348.5000292211771,148.5000063329935,333.5000292211771,148.5000063329935L272.5000292211771,148.5000063329935"></path><path id="kity_path_176" fill="none" stroke="rgb(115, 191, 118)" stroke-width="1" d="M363.5000292211771,174.5000063329935C348.5000292211771,174.5000063329935,348.5000292211771,200.5000063329935,333.5000292211771,200.5000063329935L294.5000292211771,200.5000063329935"></path><path id="kity_path_184" fill="none" stroke="rgb(115, 191, 118)" stroke-width="1" d="M363.5000292211771,174.5000063329935C348.5000292211771,174.5000063329935,348.5000292211771,252.5000063329935,333.5000292211771,252.5000063329935L294.5000292211771,252.5000063329935"></path><path id="kity_path_192" fill="none" stroke="rgb(115, 191, 118)" stroke-width="1" d="M470.5000292211771,473.5000063329935C455.5000292211771,473.5000063329935,455.5000292211771,902.5000063329935,440.5000292211771,902.5000063329935L320.5000292211771,902.5000063329935"></path><path id="kity_path_200" fill="none" stroke="rgb(115, 191, 118)" stroke-width="1" d="M320.5000292211771,902.5000063329935C305.5000292211771,902.5000063329935,305.5000292211771,304.5000063329935,290.5000292211771,304.5000063329935L235.5000292211771,304.5000063329935"></path><path id="kity_path_208" fill="none" stroke="rgb(115, 191, 118)" stroke-width="1" d="M320.5000292211771,902.5000063329935C305.5000292211771,902.5000063329935,305.5000292211771,356.5000063329935,290.5000292211771,356.5000063329935L255.5000292211771,356.5000063329935"></path><path id="kity_path_216" fill="none" stroke="rgb(115, 191, 118)" stroke-width="1" d="M320.5000292211771,902.5000063329935C305.5000292211771,902.5000063329935,305.5000292211771,408.5000063329935,290.5000292211771,408.5000063329935L257.5000292211771,408.5000063329935"></path><path id="kity_path_224" fill="none" stroke="rgb(115, 191, 118)" stroke-width="1" d="M320.5000292211771,902.5000063329935C305.5000292211771,902.5000063329935,305.5000292211771,460.5000063329935,290.5000292211771,460.5000063329935L252.5000292211771,460.5000063329935"></path><path id="kity_path_232" fill="none" stroke="rgb(115, 191, 118)" stroke-width="1" d="M320.5000292211771,902.5000063329935C305.5000292211771,902.5000063329935,305.5000292211771,512.5000063329935,290.5000292211771,512.5000063329935L252.5000292211771,512.5000063329935"></path><path id="kity_path_240" fill="none" stroke="rgb(115, 191, 118)" stroke-width="1" d="M320.5000292211771,902.5000063329935C305.5000292211771,902.5000063329935,305.5000292211771,928.5000063329935,290.5000292211771,928.5000063329935L257.5000292211771,928.5000063329935"></path><path id="kity_path_248" fill="none" stroke="rgb(115, 191, 118)" stroke-width="1" d="M320.5000292211771,902.5000063329935C305.5000292211771,902.5000063329935,305.5000292211771,1370.5000063329935,290.5000292211771,1370.5000063329935L254.5000292211771,1370.5000063329935"></path><path id="kity_path_256" fill="none" stroke="rgb(115, 191, 118)" stroke-width="1" d="M320.5000292211771,902.5000063329935C305.5000292211771,902.5000063329935,305.5000292211771,1500.5000063329935,290.5000292211771,1500.5000063329935L227.5000292211771,1500.5000063329935"></path><path id="kity_path_264" fill="none" stroke="rgb(115, 191, 118)" stroke-width="1" d="M451.5000292211771,1656.5000063329935C436.5000292211771,1656.5000063329935,436.5000292211771,1578.5000063329935,421.5000292211771,1578.5000063329935L371.5000292211771,1578.5000063329935"></path><path id="kity_path_272" fill="none" stroke="rgb(115, 191, 118)" stroke-width="1" d="M451.5000292211771,1656.5000063329935C436.5000292211771,1656.5000063329935,436.5000292211771,1734.5000063329935,421.5000292211771,1734.5000063329935L360.5000292211771,1734.5000063329935"></path><path id="kity_path_280" fill="none" stroke="rgb(115, 191, 118)" stroke-width="1" d="M371.5000292211771,1578.5000063329935C356.5000292211771,1578.5000063329935,356.5000292211771,1552.5000063329935,341.5000292211771,1552.5000063329935L265.5000292211771,1552.5000063329935"></path><path id="kity_path_288" fill="none" stroke="rgb(115, 191, 118)" stroke-width="1" d="M371.5000292211771,1578.5000063329935C356.5000292211771,1578.5000063329935,356.5000292211771,1604.5000063329935,341.5000292211771,1604.5000063329935L252.5000292211771,1604.5000063329935"></path><path id="kity_path_296" fill="none" stroke="rgb(115, 191, 118)" stroke-width="1" d="M360.5000292211771,1734.5000063329935C345.5000292211771,1734.5000063329935,345.5000292211771,1656.5000063329935,330.5000292211771,1656.5000063329935L278.5000292211771,1656.5000063329935"></path><path id="kity_path_304" fill="none" stroke="rgb(115, 191, 118)" stroke-width="1" d="M360.5000292211771,1734.5000063329935C345.5000292211771,1734.5000063329935,345.5000292211771,1708.5000063329935,330.5000292211771,1708.5000063329935L254.5000292211771,1708.5000063329935"></path><path id="kity_path_312" fill="none" stroke="rgb(115, 191, 118)" stroke-width="1" d="M360.5000292211771,1734.5000063329935C345.5000292211771,1734.5000063329935,345.5000292211771,1760.5000063329935,330.5000292211771,1760.5000063329935L263.5000292211771,1760.5000063329935"></path><path id="kity_path_320" fill="none" stroke="rgb(115, 191, 118)" stroke-width="1" d="M360.5000292211771,1734.5000063329935C345.5000292211771,1734.5000063329935,345.5000292211771,1812.5000063329935,330.5000292211771,1812.5000063329935L291.5000292211771,1812.5000063329935"></path><path id="kity_path_336" fill="none" stroke="rgb(115, 191, 118)" stroke-width="1" d="M143.5000292211771,668.5000063329935C128.5000292211771,668.5000063329935,128.5000292211771,565.5000063329935,113.5000292211771,565.5000063329935L33.5000292211771,565.5000063329935"></path><path id="kity_path_384" fill="none" stroke="rgb(115, 191, 118)" stroke-width="1" d="M257.5000292211771,928.5000063329935C242.5000292211771,928.5000063329935,242.5000292211771,954.5000063329935,227.5000292211771,954.5000063329935L160.5000292211771,954.5000063329935"></path><path id="kity_path_408" fill="none" stroke="rgb(115, 191, 118)" stroke-width="1" d="M257.5000292211771,928.5000063329935C242.5000292211771,928.5000063329935,242.5000292211771,668.5000063329935,227.5000292211771,668.5000063329935L143.5000292211771,668.5000063329935"></path><path id="kity_path_424" fill="none" stroke="rgb(115, 191, 118)" stroke-width="1" d="M143.5000292211771,668.5000063329935C128.5000292211771,668.5000063329935,128.5000292211771,616.5000063329935,113.5000292211771,616.5000063329935L59.5000292211771,616.5000063329935"></path><path id="kity_path_432" fill="none" stroke="rgb(115, 191, 118)" stroke-width="1" d="M143.5000292211771,668.5000063329935C128.5000292211771,668.5000063329935,128.5000292211771,668.5000063329935,113.5000292211771,668.5000063329935L49.5000292211771,668.5000063329935"></path><path id="kity_path_440" fill="none" stroke="rgb(115, 191, 118)" stroke-width="1" d="M143.5000292211771,668.5000063329935C128.5000292211771,668.5000063329935,128.5000292211771,720.5000063329935,113.5000292211771,720.5000063329935L47.5000292211771,720.5000063329935"></path><path id="kity_path_448" fill="none" stroke="rgb(115, 191, 118)" stroke-width="1" d="M143.5000292211771,668.5000063329935C128.5000292211771,668.5000063329935,128.5000292211771,772.5000063329935,113.5000292211771,772.5000063329935L45.5000292211771,772.5000063329935"></path><path id="kity_path_464" fill="none" stroke="rgb(115, 191, 118)" stroke-width="1" d="M257.5000292211771,928.5000063329935C242.5000292211771,928.5000063329935,242.5000292211771,1188.5000063329935,227.5000292211771,1188.5000063329935L160.5000292211771,1188.5000063329935"></path><path id="kity_path_472" fill="none" stroke="rgb(115, 191, 118)" stroke-width="1" d="M160.5000292211771,954.5000063329935C145.5000292211771,954.5000063329935,145.5000292211771,824.5000063329935,130.5000292211771,824.5000063329935L60.5000292211771,824.5000063329935"></path><path id="kity_path_480" fill="none" stroke="rgb(115, 191, 118)" stroke-width="1" d="M160.5000292211771,954.5000063329935C145.5000292211771,954.5000063329935,145.5000292211771,876.5000063329935,130.5000292211771,876.5000063329935L37.5000292211771,876.5000063329935"></path><path id="kity_path_488" fill="none" stroke="rgb(115, 191, 118)" stroke-width="1" d="M160.5000292211771,954.5000063329935C145.5000292211771,954.5000063329935,145.5000292211771,928.5000063329935,130.5000292211771,928.5000063329935L20.5000292211771,928.5000063329935"></path><path id="kity_path_496" fill="none" stroke="rgb(115, 191, 118)" stroke-width="1" d="M160.5000292211771,954.5000063329935C145.5000292211771,954.5000063329935,145.5000292211771,980.5000063329935,130.5000292211771,980.5000063329935L42.5000292211771,980.5000063329935"></path><path id="kity_path_504" fill="none" stroke="rgb(115, 191, 118)" stroke-width="1" d="M160.5000292211771,954.5000063329935C145.5000292211771,954.5000063329935,145.5000292211771,1032.5000063329935,130.5000292211771,1032.5000063329935L45.5000292211771,1032.5000063329935"></path><path id="kity_path_512" fill="none" stroke="rgb(115, 191, 118)" stroke-width="1" d="M160.5000292211771,954.5000063329935C145.5000292211771,954.5000063329935,145.5000292211771,1084.5000063329935,130.5000292211771,1084.5000063329935L40.5000292211771,1084.5000063329935"></path><path id="kity_path_520" fill="none" stroke="rgb(115, 191, 118)" stroke-width="1" d="M160.5000292211771,1188.5000063329935C145.5000292211771,1188.5000063329935,145.5000292211771,1136.5000063329935,130.5000292211771,1136.5000063329935L49.5000292211771,1136.5000063329935"></path><path id="kity_path_528" fill="none" stroke="rgb(115, 191, 118)" stroke-width="1" d="M160.5000292211771,1188.5000063329935C145.5000292211771,1188.5000063329935,145.5000292211771,1188.5000063329935,130.5000292211771,1188.5000063329935L62.5000292211771,1188.5000063329935"></path><path id="kity_path_536" fill="none" stroke="rgb(115, 191, 118)" stroke-width="1" d="M160.5000292211771,1188.5000063329935C145.5000292211771,1188.5000063329935,145.5000292211771,1240.5000063329935,130.5000292211771,1240.5000063329935L78.5000292211771,1240.5000063329935"></path><path id="kity_path_544" fill="none" stroke="rgb(115, 191, 118)" stroke-width="1" d="M254.5000292211771,1370.5000063329935C239.5000292211771,1370.5000063329935,239.5000292211771,1292.5000063329935,224.5000292211771,1292.5000063329935L151.5000292211771,1292.5000063329935"></path><path id="kity_path_552" fill="none" stroke="rgb(115, 191, 118)" stroke-width="1" d="M254.5000292211771,1370.5000063329935C239.5000292211771,1370.5000063329935,239.5000292211771,1344.5000063329935,224.5000292211771,1344.5000063329935L161.5000292211771,1344.5000063329935"></path><path id="kity_path_560" fill="none" stroke="rgb(115, 191, 118)" stroke-width="1" d="M254.5000292211771,1370.5000063329935C239.5000292211771,1370.5000063329935,239.5000292211771,1396.5000063329935,224.5000292211771,1396.5000063329935L140.5000292211771,1396.5000063329935"></path><path id="kity_path_568" fill="none" stroke="rgb(115, 191, 118)" stroke-width="1" d="M254.5000292211771,1370.5000063329935C239.5000292211771,1370.5000063329935,239.5000292211771,1448.5000063329935,224.5000292211771,1448.5000063329935L130.5000292211771,1448.5000063329935"></path></g><g id="minder_node1"><path id="kity_path_30" fill="rgba(0, 0, 0, .25)" stroke="none" d="M788.5000292211771,1033.5000063329935h50a22,22,0,0,1,22,22v0a22,22,0,0,1,-22,22h-50a22,22,0,0,1,-22,-22v0a22,22,0,0,1,22,-22z" display="none"></path><path id="node_outline1" fill="rgb(115, 191, 118)" stroke="rgb(115, 191, 118)" d="M768.5000292211771,1030.5000063329935h67a5,5,0,0,1,5,5v30a5,5,0,0,1,-5,5h-67a5,5,0,0,1,-5,-5v-30a5,5,0,0,1,5,-5z" stroke-width="3"></path><g id="node_text1" fill="white"><text id="kity_text_22" text-rendering="inherit" font-size="16" dy=".8em" y="1040.1000061661005" x="787.5000292211771">CSS</text></g></g><g id="kity_g_14" display="none"><path id="kity_path_15" fill="rgba(0, 153, 5, 0.5)" stroke="none" d="M161.5000292211771,995.5000063329935h56v15h-56z"></path><path id="kity_path_16" fill="none" stroke="rgb(0, 128, 4)" d="M161.5000292211771,995.5000063329935L217.5000292211771,995.5000063329935" stroke-width="1"></path></g><g id="minder_node2" opacity="1"><g id="node_expander1" style="cursor: pointer;"><path id="kity_path_37" fill="white" stroke="gray" d="M956.5000340789557,1050.5000063329935A6,6,0,1,1,944.5000340789557,1050.5000063329935A6,6,0,1,1,956.5000340789557,1050.5000063329935"></path><path id="kity_path_38" fill="none" stroke="gray" d="M946.0000340789557,1050.5000063329935L955.0000340789557,1050.5000063329935"></path></g><path id="node_outline2" fill="rgb(238, 246, 238)" stroke="rgb(115, 191, 118)" d="M960.5000348836184,1037.5000063329935h85a3,3,0,0,1,3,3v20a3,3,0,0,1,-3,3h-85a3,3,0,0,1,-3,-3v-20a3,3,0,0,1,3,-3z" stroke-width="1"></path><g id="node_text2" fill="black"><text id="kity_text_34" text-rendering="inherit" font-size="14" dy=".8em" y="1041.400006365776" x="977.5000348836184">at-rules</text></g></g><g id="minder_node3"><g id="node_expander2" style="cursor: pointer;"><path id="kity_path_45" fill="white" stroke="gray" d="M656.5000251382589,1050.5000063329935A6,6,0,1,1,644.5000251382589,1050.5000063329935A6,6,0,1,1,656.5000251382589,1050.5000063329935"></path><path id="kity_path_46" fill="none" stroke="gray" d="M646.0000251382589,1050.5000063329935L655.0000251382589,1050.5000063329935"></path></g><path id="node_outline3" fill="rgb(238, 246, 238)" stroke="rgb(115, 191, 118)" d="M580.5000235587358,1037.5000063329935h60a3,3,0,0,1,3,3v20a3,3,0,0,1,-3,3h-60a3,3,0,0,1,-3,-3v-20a3,3,0,0,1,3,-3z" stroke-width="1"></path><g id="node_text3" fill="black"><text id="kity_text_42" text-rendering="inherit" font-size="14" dy=".8em" y="1041.400006365776" x="597.5000235587358">rule</text></g></g><g id="minder_node4"><g id="node_expander3" style="cursor: pointer;" display="none"><path id="kity_path_53" fill="white" stroke="gray" d="M1088.5000380128622,842.5000001341105A6,6,0,1,1,1076.5000380128622,842.5000001341105A6,6,0,1,1,1088.5000380128622,842.5000001341105"></path><path id="kity_path_54" fill="none" stroke="gray"></path></g><path id="node_outline4" fill="none" stroke="none" d="M1093.5000384896994,831.5000001341105h64a5,5,0,0,1,5,5v12a5,5,0,0,1,-5,5h-64a5,5,0,0,1,-5,-5v-12a5,5,0,0,1,5,-5z" stroke-width="3"></path><g id="node_text4" fill="black"><text id="kity_text_50" text-rendering="inherit" font-size="12" dy=".8em" y="834.7000002076229" x="1098.5000384896994">@charset</text></g></g><g id="minder_node5"><g id="node_expander4" style="cursor: pointer;" display="none"><path id="kity_path_61" fill="white" stroke="gray" d="M1088.5000380128622,894.5000016838312A6,6,0,1,1,1076.5000380128622,894.5000016838312A6,6,0,1,1,1088.5000380128622,894.5000016838312"></path><path id="kity_path_62" fill="none" stroke="gray"></path></g><path id="node_outline5" fill="none" stroke="none" d="M1093.5000384896994,883.5000016838312h61a5,5,0,0,1,5,5v12a5,5,0,0,1,-5,5h-61a5,5,0,0,1,-5,-5v-12a5,5,0,0,1,5,-5z" stroke-width="3"></path><g id="node_text5" fill="black"><text id="kity_text_58" text-rendering="inherit" font-size="12" dy=".8em" y="886.7000017573437" x="1098.5000384896994">@import</text></g></g><g id="minder_node6"><g id="node_expander5" style="cursor: pointer;" display="none"><path id="kity_path_69" fill="white" stroke="gray" d="M1088.5000380128622,946.500003233552A6,6,0,1,1,1076.5000380128622,946.500003233552A6,6,0,1,1,1088.5000380128622,946.500003233552"></path><path id="kity_path_70" fill="none" stroke="gray"></path></g><path id="node_outline6" fill="none" stroke="none" d="M1093.5000384896994,935.500003233552h58a5,5,0,0,1,5,5v12a5,5,0,0,1,-5,5h-58a5,5,0,0,1,-5,-5v-12a5,5,0,0,1,5,-5z" stroke-width="3"></path><g id="node_text6" fill="black"><text id="kity_text_66" text-rendering="inherit" font-size="12" dy=".8em" y="938.7000033070644" x="1098.5000384896994">@media</text></g></g><g id="minder_node7"><g id="node_expander6" style="cursor: pointer;" display="none"><path id="kity_path_77" fill="white" stroke="gray" d="M1088.5000380128622,998.5000047832727A6,6,0,1,1,1076.5000380128622,998.5000047832727A6,6,0,1,1,1088.5000380128622,998.5000047832727"></path><path id="kity_path_78" fill="none" stroke="gray"></path></g><path id="node_outline7" fill="none" stroke="none" d="M1093.5000384896994,987.5000047832727h51a5,5,0,0,1,5,5v12a5,5,0,0,1,-5,5h-51a5,5,0,0,1,-5,-5v-12a5,5,0,0,1,5,-5z" stroke-width="3"></path><g id="node_text7" fill="black"><text id="kity_text_74" text-rendering="inherit" font-size="12" dy=".8em" y="990.7000048567852" x="1098.5000384896994">@page</text></g></g><g id="minder_node8"><g id="node_expander7" style="cursor: pointer;" display="none"><path id="kity_path_85" fill="white" stroke="gray" d="M1088.5000380128622,1050.5000063329935A6,6,0,1,1,1076.5000380128622,1050.5000063329935A6,6,0,1,1,1088.5000380128622,1050.5000063329935"></path><path id="kity_path_86" fill="none" stroke="gray"></path></g><path id="node_outline8" fill="none" stroke="none" d="M1093.5000384896994,1039.5000063329935h87a5,5,0,0,1,5,5v12a5,5,0,0,1,-5,5h-87a5,5,0,0,1,-5,-5v-12a5,5,0,0,1,5,-5z" stroke-width="3"></path><g id="node_text8" fill="black"><text id="kity_text_82" text-rendering="inherit" font-size="12" dy=".8em" y="1042.700006406506" x="1098.5000384896994">@count-style</text></g></g><g id="minder_node9"><g id="node_expander8" style="cursor: pointer;" display="none"><path id="kity_path_93" fill="white" stroke="gray" d="M1088.5000380128622,1102.5000078827143A6,6,0,1,1,1076.5000380128622,1102.5000078827143A6,6,0,1,1,1088.5000380128622,1102.5000078827143"></path><path id="kity_path_94" fill="none" stroke="gray"></path></g><path id="node_outline9" fill="none" stroke="none" d="M1093.5000384896994,1091.5000078827143h81a5,5,0,0,1,5,5v12a5,5,0,0,1,-5,5h-81a5,5,0,0,1,-5,-5v-12a5,5,0,0,1,5,-5z" stroke-width="3"></path><g id="node_text9" fill="black"><text id="kity_text_90" text-rendering="inherit" font-size="12" dy=".8em" y="1094.7000079562267" x="1098.5000384896994">@keyframes</text></g></g><g id="minder_node10"><g id="node_expander9" style="cursor: pointer;" display="none"><path id="kity_path_101" fill="white" stroke="gray" d="M1088.5000380128622,1154.500009432435A6,6,0,1,1,1076.5000380128622,1154.500009432435A6,6,0,1,1,1088.5000380128622,1154.500009432435"></path><path id="kity_path_102" fill="none" stroke="gray"></path></g><path id="node_outline10" fill="none" stroke="none" d="M1093.5000384896994,1143.500009432435h75a5,5,0,0,1,5,5v12a5,5,0,0,1,-5,5h-75a5,5,0,0,1,-5,-5v-12a5,5,0,0,1,5,-5z" stroke-width="3"></path><g id="node_text10" fill="black"><text id="kity_text_98" text-rendering="inherit" font-size="12" dy=".8em" y="1146.7000095059475" x="1098.5000384896994">@font-face</text></g></g><g id="minder_node11"><g id="node_expander10" style="cursor: pointer;" display="none"><path id="kity_path_109" fill="white" stroke="gray" d="M1088.5000380128622,1206.5000109821558A6,6,0,1,1,1076.5000380128622,1206.5000109821558A6,6,0,1,1,1088.5000380128622,1206.5000109821558"></path><path id="kity_path_110" fill="none" stroke="gray"></path></g><path id="node_outline11" fill="none" stroke="none" d="M1093.5000384896994,1195.5000109821558h73a5,5,0,0,1,5,5v12a5,5,0,0,1,-5,5h-73a5,5,0,0,1,-5,-5v-12a5,5,0,0,1,5,-5z" stroke-width="3"></path><g id="node_text11" fill="black"><text id="kity_text_106" text-rendering="inherit" font-size="12" dy=".8em" y="1198.7000110556683" x="1098.5000384896994">@supports</text></g></g><g id="minder_node12"><g id="node_expander11" style="cursor: pointer;" display="none"><path id="kity_path_117" fill="white" stroke="gray" d="M1088.5000380128622,1258.5000125318766A6,6,0,1,1,1076.5000380128622,1258.5000125318766A6,6,0,1,1,1088.5000380128622,1258.5000125318766"></path><path id="kity_path_118" fill="none" stroke="gray"></path></g><path id="node_outline12" fill="none" stroke="none" d="M1093.5000384896994,1247.5000125318766h87a5,5,0,0,1,5,5v12a5,5,0,0,1,-5,5h-87a5,5,0,0,1,-5,-5v-12a5,5,0,0,1,5,-5z" stroke-width="3"></path><g id="node_text12" fill="black"><text id="kity_text_114" text-rendering="inherit" font-size="12" dy=".8em" y="1250.700012605389" x="1098.5000384896994">@namespace</text></g></g><g id="minder_node13"><g id="node_expander12" style="cursor: pointer;"><path id="kity_path_125" fill="white" stroke="gray" d="M549.5000219494104,459.499988719821A6,6,0,1,1,537.5000219494104,459.499988719821A6,6,0,1,1,549.5000219494104,459.499988719821"></path><path id="kity_path_126" fill="none" stroke="gray" d="M539.0000219494104,459.499988719821L548.0000219494104,459.499988719821"></path></g><path id="node_outline13" fill="none" stroke="none" d="M475.5000200718641,448.499988719821h57a5,5,0,0,1,5,5v12a5,5,0,0,1,-5,5h-57a5,5,0,0,1,-5,-5v-12a5,5,0,0,1,5,-5z" stroke-width="3"></path><g id="node_text13" fill="black"><text id="kity_text_122" text-rendering="inherit" font-size="12" dy=".8em" y="451.6999887933334" x="480.5000200718641">Selector</text></g></g><g id="minder_node14"><g id="node_expander13" style="cursor: pointer;"><path id="kity_path_133" fill="white" stroke="gray" d="M549.5000219494104,1642.5000239759684A6,6,0,1,1,537.5000219494104,1642.5000239759684A6,6,0,1,1,549.5000219494104,1642.5000239759684"></path><path id="kity_path_134" fill="none" stroke="gray" d="M539.0000219494104,1642.5000239759684L548.0000219494104,1642.5000239759684"></path></g><path id="node_outline14" fill="none" stroke="none" d="M456.50001950562,1631.5000239759684h76a5,5,0,0,1,5,5v12a5,5,0,0,1,-5,5h-76a5,5,0,0,1,-5,-5v-12a5,5,0,0,1,5,-5z" stroke-width="3"></path><g id="node_text14" fill="black"><text id="kity_text_130" text-rendering="inherit" font-size="12" dy=".8em" y="1634.7000240494808" x="461.50001950562">Declaration</text></g></g><g id="minder_node15"><g id="node_expander14" style="cursor: pointer;" display="none"><path id="kity_path_141" fill="white" stroke="gray" d="M442.50001876056194,30.499975934624672A6,6,0,1,1,430.50001876056194,30.499975934624672A6,6,0,1,1,442.50001876056194,30.499975934624672"></path><path id="kity_path_142" fill="none" stroke="gray"></path></g><path id="node_outline15" fill="none" stroke="none" d="M342.50001610815525,19.499975934624672h83a5,5,0,0,1,5,5v12a5,5,0,0,1,-5,5h-83a5,5,0,0,1,-5,-5v-12a5,5,0,0,1,5,-5z" stroke-width="3"></path><g id="node_text15" fill="black"><text id="kity_text_138" text-rendering="inherit" font-size="12" dy=".8em" y="22.69997600813707" x="347.50001610815525">Select&#xa0;group</text></g></g><g id="minder_node17"><g id="node_expander16" style="cursor: pointer;"><path id="kity_path_157" fill="white" stroke="gray" d="M442.50001876056194,160.49997980892658A6,6,0,1,1,430.50001876056194,160.49997980892658A6,6,0,1,1,442.50001876056194,160.49997980892658"></path><path id="kity_path_158" fill="none" stroke="gray" d="M432.00001876056194,160.49997980892658L441.00001876056194,160.49997980892658"></path></g><path id="node_outline17" fill="none" stroke="none" d="M368.50001688301563,149.49997980892658h57a5,5,0,0,1,5,5v12a5,5,0,0,1,-5,5h-57a5,5,0,0,1,-5,-5v-12a5,5,0,0,1,5,-5z" stroke-width="3"></path><g id="node_text17" fill="black"><text id="kity_text_154" text-rendering="inherit" font-size="12" dy=".8em" y="152.69997988243898" x="373.50001688301563">Selector</text></g></g><g id="minder_node18"><g id="node_expander17" style="cursor: pointer;" display="none"><path id="kity_path_165" fill="white" stroke="gray" d="M335.50001557171345,82.49997748434544A6,6,0,1,1,323.50001557171345,82.49997748434544A6,6,0,1,1,335.50001557171345,82.49997748434544"></path><path id="kity_path_166" fill="none" stroke="gray"></path></g><path id="node_outline18" fill="none" stroke="none" d="M299.5000148266554,71.49997748434544h19a5,5,0,0,1,5,5v12a5,5,0,0,1,-5,5h-19a5,5,0,0,1,-5,-5v-12a5,5,0,0,1,5,-5z" stroke-width="3"></path><g id="node_text18" fill="black"><text id="kity_text_162" text-rendering="inherit" font-size="12" dy=".8em" y="74.69997755785784" x="304.5000148266554">&gt;</text></g></g><g id="minder_node19"><g id="node_expander18" style="cursor: pointer;" display="none"><path id="kity_path_173" fill="white" stroke="gray" d="M335.50001557171345,134.4999790340662A6,6,0,1,1,323.50001557171345,134.4999790340662A6,6,0,1,1,335.50001557171345,134.4999790340662"></path><path id="kity_path_174" fill="none" stroke="gray"></path></g><path id="node_outline19" fill="none" stroke="none" d="M277.5000141710043,123.4999790340662h41a5,5,0,0,1,5,5v12a5,5,0,0,1,-5,5h-41a5,5,0,0,1,-5,-5v-12a5,5,0,0,1,5,-5z" stroke-width="3"></path><g id="node_text19" fill="black"><text id="kity_text_170" text-rendering="inherit" font-size="12" dy=".8em" y="126.6999791075786" x="282.5000141710043">&lt;sp&gt;</text></g></g><g id="minder_node20"><g id="node_expander19" style="cursor: pointer;" display="none"><path id="kity_path_181" fill="white" stroke="gray" d="M335.50001557171345,186.49998058378696A6,6,0,1,1,323.50001557171345,186.49998058378696A6,6,0,1,1,335.50001557171345,186.49998058378696"></path><path id="kity_path_182" fill="none" stroke="gray"></path></g><path id="node_outline20" fill="none" stroke="none" d="M299.5000148266554,175.49998058378696h19a5,5,0,0,1,5,5v12a5,5,0,0,1,-5,5h-19a5,5,0,0,1,-5,-5v-12a5,5,0,0,1,5,-5z" stroke-width="3"></path><g id="node_text20" fill="black"><text id="kity_text_178" text-rendering="inherit" font-size="12" dy=".8em" y="178.69998065729936" x="304.5000148266554">+</text></g></g><g id="minder_node21"><g id="node_expander20" style="cursor: pointer;" display="none"><path id="kity_path_189" fill="white" stroke="gray" d="M335.50001557171345,238.49998213350773A6,6,0,1,1,323.50001557171345,238.49998213350773A6,6,0,1,1,335.50001557171345,238.49998213350773"></path><path id="kity_path_190" fill="none" stroke="gray"></path></g><path id="node_outline21" fill="none" stroke="none" d="M299.5000148266554,227.49998213350773h19a5,5,0,0,1,5,5v12a5,5,0,0,1,-5,5h-19a5,5,0,0,1,-5,-5v-12a5,5,0,0,1,5,-5z" stroke-width="3"></path><g id="node_text21" fill="black"><text id="kity_text_186" text-rendering="inherit" font-size="12" dy=".8em" y="230.69998220702013" x="304.5000148266554">~</text></g></g><g id="minder_node22"><g id="node_expander21" style="cursor: pointer;"><path id="kity_path_197" fill="white" stroke="gray" d="M442.50001876056194,888.5000015050173A6,6,0,1,1,430.50001876056194,888.5000015050173A6,6,0,1,1,442.50001876056194,888.5000015050173"></path><path id="kity_path_198" fill="none" stroke="gray" d="M432.00001876056194,888.5000015050173L441.00001876056194,888.5000015050173"></path></g><path id="node_outline22" fill="none" stroke="none" d="M325.50001560151577,877.5000015050173h100a5,5,0,0,1,5,5v12a5,5,0,0,1,-5,5h-100a5,5,0,0,1,-5,-5v-12a5,5,0,0,1,5,-5z" stroke-width="3"></path><g id="node_text22" fill="black"><text id="kity_text_194" text-rendering="inherit" font-size="12" dy=".8em" y="880.7000015785297" x="330.50001560151577">Simple Selector</text></g></g><g id="minder_node23"><g id="node_expander22" style="cursor: pointer;" display="none"><path id="kity_path_205" fill="white" stroke="gray" d="M292.5000142902136,290.4999836832285A6,6,0,1,1,280.5000142902136,290.4999836832285A6,6,0,1,1,292.5000142902136,290.4999836832285"></path><path id="kity_path_206" fill="none" stroke="gray"></path></g><path id="node_outline23" fill="none" stroke="none" d="M240.50001306831837,279.4999836832285h35a5,5,0,0,1,5,5v12a5,5,0,0,1,-5,5h-35a5,5,0,0,1,-5,-5v-12a5,5,0,0,1,5,-5z" stroke-width="3"></path><g id="node_text23" fill="black"><text id="kity_text_202" text-rendering="inherit" font-size="12" dy=".8em" y="282.6999837567409" x="245.50001306831837">type</text></g></g><g id="minder_node24"><g id="node_expander23" style="cursor: pointer;" display="none"><path id="kity_path_213" fill="white" stroke="gray" d="M292.5000142902136,342.49998523294926A6,6,0,1,1,280.5000142902136,342.49998523294926A6,6,0,1,1,292.5000142902136,342.49998523294926"></path><path id="kity_path_214" fill="none" stroke="gray"></path></g><path id="node_outline24" fill="none" stroke="none" d="M260.5000136643648,331.49998523294926h15a5,5,0,0,1,5,5v12a5,5,0,0,1,-5,5h-15a5,5,0,0,1,-5,-5v-12a5,5,0,0,1,5,-5z" stroke-width="3"></path><g id="node_text24" fill="black"><text id="kity_text_210" text-rendering="inherit" font-size="12" dy=".8em" y="334.69998530646166" x="265.5000136643648">*</text></g></g><g id="minder_node25"><g id="node_expander24" style="cursor: pointer;" display="none"><path id="kity_path_221" fill="white" stroke="gray" d="M292.5000142902136,394.49998678267A6,6,0,1,1,280.5000142902136,394.49998678267A6,6,0,1,1,292.5000142902136,394.49998678267"></path><path id="kity_path_222" fill="none" stroke="gray"></path></g><path id="node_outline25" fill="none" stroke="none" d="M262.50001372396946,383.49998678267h13a5,5,0,0,1,5,5v12a5,5,0,0,1,-5,5h-13a5,5,0,0,1,-5,-5v-12a5,5,0,0,1,5,-5z" stroke-width="3"></path><g id="node_text25" fill="black"><text id="kity_text_218" text-rendering="inherit" font-size="12" dy=".8em" y="386.6999868561824" x="267.50001372396946">.</text></g></g><g id="minder_node26"><g id="node_expander25" style="cursor: pointer;" display="none"><path id="kity_path_229" fill="white" stroke="gray" d="M292.5000142902136,446.4999883323908A6,6,0,1,1,280.5000142902136,446.4999883323908A6,6,0,1,1,292.5000142902136,446.4999883323908"></path><path id="kity_path_230" fill="none" stroke="gray"></path></g><path id="node_outline26" fill="none" stroke="none" d="M257.50001357495785,435.4999883323908h18a5,5,0,0,1,5,5v12a5,5,0,0,1,-5,5h-18a5,5,0,0,1,-5,-5v-12a5,5,0,0,1,5,-5z" stroke-width="3"></path><g id="node_text26" fill="black"><text id="kity_text_226" text-rendering="inherit" font-size="12" dy=".8em" y="438.6999884059032" x="262.50001357495785">#</text></g></g><g id="minder_node27"><g id="node_expander26" style="cursor: pointer;" display="none"><path id="kity_path_237" fill="white" stroke="gray" d="M292.5000142902136,498.49998988211155A6,6,0,1,1,280.5000142902136,498.49998988211155A6,6,0,1,1,292.5000142902136,498.49998988211155"></path><path id="kity_path_238" fill="none" stroke="gray"></path></g><path id="node_outline27" fill="none" stroke="none" d="M257.50001357495785,487.49998988211155h18a5,5,0,0,1,5,5v12a5,5,0,0,1,-5,5h-18a5,5,0,0,1,-5,-5v-12a5,5,0,0,1,5,-5z" stroke-width="3"></path><g id="node_text27" fill="black"><text id="kity_text_234" text-rendering="inherit" font-size="12" dy=".8em" y="490.69998995562395" x="262.50001357495785">[]</text></g></g><g id="minder_node28"><g id="node_expander27" style="cursor: pointer;"><path id="kity_path_245" fill="white" stroke="gray" d="M292.5000142902136,914.5000022798777A6,6,0,1,1,280.5000142902136,914.5000022798777A6,6,0,1,1,292.5000142902136,914.5000022798777"></path><path id="kity_path_246" fill="none" stroke="gray" d="M282.0000142902136,914.5000022798777L291.0000142902136,914.5000022798777"></path></g><path id="node_outline28" fill="none" stroke="none" d="M262.50001372396946,903.5000022798777h13a5,5,0,0,1,5,5v12a5,5,0,0,1,-5,5h-13a5,5,0,0,1,-5,-5v-12a5,5,0,0,1,5,-5z" stroke-width="3"></path><g id="node_text28" fill="black"><text id="kity_text_242" text-rendering="inherit" font-size="12" dy=".8em" y="906.7000023533901" x="267.50001372396946">:</text></g></g><g id="minder_node29"><g id="node_expander28" style="cursor: pointer;"><path id="kity_path_253" fill="white" stroke="gray" d="M292.5000142902136,1356.5000154525042A6,6,0,1,1,280.5000142902136,1356.5000154525042A6,6,0,1,1,292.5000142902136,1356.5000154525042"></path><path id="kity_path_254" fill="none" stroke="gray" d="M282.0000142902136,1356.5000154525042L291.0000142902136,1356.5000154525042"></path></g><path id="node_outline29" fill="none" stroke="none" d="M259.5000136345625,1345.5000154525042h16a5,5,0,0,1,5,5v12a5,5,0,0,1,-5,5h-16a5,5,0,0,1,-5,-5v-12a5,5,0,0,1,5,-5z" stroke-width="3"></path><g id="node_text29" fill="black"><text id="kity_text_250" text-rendering="inherit" font-size="12" dy=".8em" y="1348.7000155260166" x="264.5000136345625">::</text></g></g><g id="minder_node30"><g id="node_expander29" style="cursor: pointer;" display="none"><path id="kity_path_261" fill="white" stroke="gray" d="M292.5000142902136,1486.500019326806A6,6,0,1,1,280.5000142902136,1486.500019326806A6,6,0,1,1,292.5000142902136,1486.500019326806"></path><path id="kity_path_262" fill="none" stroke="gray"></path></g><path id="node_outline30" fill="none" stroke="none" d="M232.5000128298998,1475.500019326806h43a5,5,0,0,1,5,5v12a5,5,0,0,1,-5,5h-43a5,5,0,0,1,-5,-5v-12a5,5,0,0,1,5,-5z" stroke-width="3"></path><g id="node_text30" fill="black"><text id="kity_text_258" text-rendering="inherit" font-size="12" dy=".8em" y="1478.7000194003185" x="237.5000128298998">::not()</text></g></g><g id="minder_node31"><g id="node_expander30" style="cursor: pointer;"><path id="kity_path_269" fill="white" stroke="gray" d="M423.5000181943178,1564.5000216513872A6,6,0,1,1,411.5000181943178,1564.5000216513872A6,6,0,1,1,423.5000181943178,1564.5000216513872"></path><path id="kity_path_270" fill="none" stroke="gray" d="M413.0000181943178,1564.5000216513872L422.0000181943178,1564.5000216513872"></path></g><path id="node_outline31" fill="none" stroke="none" d="M376.5000171214342,1553.5000216513872h30a5,5,0,0,1,5,5v12a5,5,0,0,1,-5,5h-30a5,5,0,0,1,-5,-5v-12a5,5,0,0,1,5,-5z" stroke-width="3"></path><g id="node_text31" fill="black"><text id="kity_text_266" text-rendering="inherit" font-size="12" dy=".8em" y="1556.7000217248997" x="381.5000171214342">key</text></g></g><g id="minder_node32"><g id="node_expander31" style="cursor: pointer;"><path id="kity_path_277" fill="white" stroke="gray" d="M423.5000181943178,1720.5000263005495A6,6,0,1,1,411.5000181943178,1720.5000263005495A6,6,0,1,1,423.5000181943178,1720.5000263005495"></path><path id="kity_path_278" fill="none" stroke="gray" d="M413.0000181943178,1720.5000263005495L422.0000181943178,1720.5000263005495"></path></g><path id="node_outline32" fill="none" stroke="none" d="M365.50001679360867,1709.5000263005495h41a5,5,0,0,1,5,5v12a5,5,0,0,1,-5,5h-41a5,5,0,0,1,-5,-5v-12a5,5,0,0,1,5,-5z" stroke-width="3"></path><g id="node_text32" fill="black"><text id="kity_text_274" text-rendering="inherit" font-size="12" dy=".8em" y="1712.700026374062" x="370.50001679360867">value</text></g></g><g id="minder_node33"><g id="node_expander32" style="cursor: pointer;" display="none"><path id="kity_path_285" fill="white" stroke="gray" d="M343.500015810132,1538.5000208765268A6,6,0,1,1,331.500015810132,1538.5000208765268A6,6,0,1,1,343.500015810132,1538.5000208765268"></path><path id="kity_path_286" fill="none" stroke="gray"></path></g><path id="node_outline33" fill="none" stroke="none" d="M270.50001396238804,1527.5000208765268h56a5,5,0,0,1,5,5v12a5,5,0,0,1,-5,5h-56a5,5,0,0,1,-5,-5v-12a5,5,0,0,1,5,-5z" stroke-width="3"></path><g id="node_text33" fill="black"><text id="kity_text_282" text-rendering="inherit" font-size="12" dy=".8em" y="1530.7000209500393" x="275.50001396238804">variable</text></g></g><g id="minder_node34"><g id="node_expander33" style="cursor: pointer;" display="none"><path id="kity_path_293" fill="white" stroke="gray" d="M343.500015810132,1590.5000224262476A6,6,0,1,1,331.500015810132,1590.5000224262476A6,6,0,1,1,343.500015810132,1590.5000224262476"></path><path id="kity_path_294" fill="none" stroke="gray"></path></g><path id="node_outline34" fill="none" stroke="none" d="M257.50001357495785,1579.5000224262476h69a5,5,0,0,1,5,5v12a5,5,0,0,1,-5,5h-69a5,5,0,0,1,-5,-5v-12a5,5,0,0,1,5,-5z" stroke-width="3"></path><g id="node_text34" fill="black"><text id="kity_text_290" text-rendering="inherit" font-size="12" dy=".8em" y="1582.70002249976" x="262.50001357495785">properties</text></g></g><g id="minder_node35"><g id="node_expander34" style="cursor: pointer;" display="none"><path id="kity_path_301" fill="white" stroke="gray" d="M332.5000154823065,1642.5000239759684A6,6,0,1,1,320.5000154823065,1642.5000239759684A6,6,0,1,1,332.5000154823065,1642.5000239759684"></path><path id="kity_path_302" fill="none" stroke="gray"></path></g><path id="node_outline35" fill="none" stroke="none" d="M283.50001434981823,1631.5000239759684h32a5,5,0,0,1,5,5v12a5,5,0,0,1,-5,5h-32a5,5,0,0,1,-5,-5v-12a5,5,0,0,1,5,-5z" stroke-width="3"></path><g id="node_text35" fill="black"><text id="kity_text_298" text-rendering="inherit" font-size="12" dy=".8em" y="1634.7000240494808" x="288.50001434981823">calc</text></g></g><g id="minder_node36"><g id="node_expander35" style="cursor: pointer;" display="none"><path id="kity_path_309" fill="white" stroke="gray" d="M332.5000154823065,1694.5000255256891A6,6,0,1,1,320.5000154823065,1694.5000255256891A6,6,0,1,1,332.5000154823065,1694.5000255256891"></path><path id="kity_path_310" fill="none" stroke="gray"></path></g><path id="node_outline36" fill="none" stroke="none" d="M259.5000136345625,1683.5000255256891h56a5,5,0,0,1,5,5v12a5,5,0,0,1,-5,5h-56a5,5,0,0,1,-5,-5v-12a5,5,0,0,1,5,-5z" stroke-width="3"></path><g id="node_text36" fill="black"><text id="kity_text_306" text-rendering="inherit" font-size="12" dy=".8em" y="1686.7000255992016" x="264.5000136345625">number</text></g></g><g id="minder_node37"><g id="node_expander36" style="cursor: pointer;" display="none"><path id="kity_path_317" fill="white" stroke="gray" d="M332.5000154823065,1746.50002707541A6,6,0,1,1,320.5000154823065,1746.50002707541A6,6,0,1,1,332.5000154823065,1746.50002707541"></path><path id="kity_path_318" fill="none" stroke="gray"></path></g><path id="node_outline37" fill="none" stroke="none" d="M268.5000139027834,1735.50002707541h47a5,5,0,0,1,5,5v12a5,5,0,0,1,-5,5h-47a5,5,0,0,1,-5,-5v-12a5,5,0,0,1,5,-5z" stroke-width="3"></path><g id="node_text37" fill="black"><text id="kity_text_314" text-rendering="inherit" font-size="12" dy=".8em" y="1738.7000271489223" x="273.5000139027834">length</text></g></g><g id="minder_node38"><g id="node_expander37" style="cursor: pointer;" display="none"><path id="kity_path_325" fill="white" stroke="gray" d="M332.5000154823065,1798.5000286251307A6,6,0,1,1,320.5000154823065,1798.5000286251307A6,6,0,1,1,332.5000154823065,1798.5000286251307"></path><path id="kity_path_326" fill="none" stroke="gray"></path></g><path id="node_outline38" fill="none" stroke="none" d="M296.5000147372484,1787.5000286251307h19a5,5,0,0,1,5,5v12a5,5,0,0,1,-5,5h-19a5,5,0,0,1,-5,-5v-12a5,5,0,0,1,5,-5z" stroke-width="3"></path><g id="node_text38" fill="black"><text id="kity_text_322" text-rendering="inherit" font-size="12" dy=".8em" y="1790.700028698643" x="301.5000147372484">...</text></g></g><g id="minder_node40" opacity="1"><g id="node_expander39" style="cursor: pointer;" display="none"><path id="kity_path_341" fill="white" stroke="gray" d="M115.50000901520252,551.4999914616346A6,6,0,1,1,103.50000901520252,551.4999914616346A6,6,0,1,1,115.50000901520252,551.4999914616346"></path><path id="kity_path_342" fill="none" stroke="gray"></path></g><path id="node_outline40" fill="none" stroke="none" d="M38.500007048249245,540.4999914616346h60a5,5,0,0,1,5,5v12a5,5,0,0,1,-5,5h-60a5,5,0,0,1,-5,-5v-12a5,5,0,0,1,5,-5z" stroke-width="3"></path><g id="node_text40" fill="black"><text id="kity_text_338" text-rendering="inherit" font-size="12" dy=".8em" y="543.6999915351471" x="43.500007048249245">:any-link</text></g></g><g id="minder_node46"><g id="node_expander45" style="cursor: pointer;"><path id="kity_path_389" fill="white" stroke="gray" d="M229.50001241266727,940.500003054738A6,6,0,1,1,217.50001241266727,940.500003054738A6,6,0,1,1,229.50001241266727,940.500003054738"></path><path id="kity_path_390" fill="none" stroke="gray" d="M219.00001241266727,940.500003054738L228.00001241266727,940.500003054738"></path></g><path id="node_outline46" fill="none" stroke="none" d="M165.5000108331442,929.500003054738h47a5,5,0,0,1,5,5v12a5,5,0,0,1,-5,5h-47a5,5,0,0,1,-5,-5v-12a5,5,0,0,1,5,-5z" stroke-width="3"></path><g id="node_text46" fill="black"><text id="kity_text_386" text-rendering="inherit" font-size="12" dy=".8em" y="932.7000031282505" x="170.5000108331442">树结构</text></g></g><g id="minder_node49"><g id="node_expander48" style="cursor: pointer;"><path id="kity_path_413" fill="white" stroke="gray" d="M229.50001241266727,654.4999945312738A6,6,0,1,1,217.50001241266727,654.4999945312738A6,6,0,1,1,229.50001241266727,654.4999945312738"></path><path id="kity_path_414" fill="none" stroke="gray" d="M219.00001241266727,654.4999945312738L228.00001241266727,654.4999945312738"></path></g><path id="node_outline49" fill="none" stroke="none" d="M148.5000103265047,643.4999945312738h64a5,5,0,0,1,5,5v12a5,5,0,0,1,-5,5h-64a5,5,0,0,1,-5,-5v-12a5,5,0,0,1,5,-5z" stroke-width="3"></path><g id="node_text49" fill="black"><text id="kity_text_410" text-rendering="inherit" font-size="12" dy=".8em" y="646.6999946047863" x="153.5000103265047">链接/行为</text></g></g><g id="kity_g_12" display="none"><path id="kity_path_13" fill="none" stroke="rgb(66, 112, 68)" d="M55.5000292211771,1072.5000063329935h59a5,5,0,0,1,5,5v12a5,5,0,0,1,-5,5h-59a5,5,0,0,1,-5,-5v-12a5,5,0,0,1,5,-5z" stroke-width="5"></path></g><g id="minder_node51"><g id="node_expander50" style="cursor: pointer;" display="none"><path id="kity_path_429" fill="white" stroke="gray" d="M115.50000901520252,602.4999929815531A6,6,0,1,1,103.50000901520252,602.4999929815531A6,6,0,1,1,115.50000901520252,602.4999929815531"></path><path id="kity_path_430" fill="none" stroke="gray"></path></g><path id="node_outline51" fill="none" stroke="none" d="M64.50000782310963,591.4999929815531h34a5,5,0,0,1,5,5v12a5,5,0,0,1,-5,5h-34a5,5,0,0,1,-5,-5v-12a5,5,0,0,1,5,-5z" stroke-width="3"></path><g id="node_text51" fill="black"><text id="kity_text_426" text-rendering="inherit" font-size="12" dy=".8em" y="594.6999930550655" x="69.50000782310963">:link</text></g></g><g id="minder_node52"><g id="node_expander51" style="cursor: pointer;" display="none"><path id="kity_path_437" fill="white" stroke="gray" d="M115.50000901520252,654.4999945312738A6,6,0,1,1,103.50000901520252,654.4999945312738A6,6,0,1,1,115.50000901520252,654.4999945312738"></path><path id="kity_path_438" fill="none" stroke="gray"></path></g><path id="node_outline52" fill="none" stroke="none" d="M54.5000075250864,643.4999945312738h44a5,5,0,0,1,5,5v12a5,5,0,0,1,-5,5h-44a5,5,0,0,1,-5,-5v-12a5,5,0,0,1,5,-5z" stroke-width="3"></path><g id="node_text52" fill="black"><text id="kity_text_434" text-rendering="inherit" font-size="12" dy=".8em" y="646.6999946047863" x="59.5000075250864">:focus</text></g></g><g id="minder_node53"><g id="node_expander52" style="cursor: pointer;" display="none"><path id="kity_path_445" fill="white" stroke="gray" d="M115.50000901520252,706.4999960809946A6,6,0,1,1,103.50000901520252,706.4999960809946A6,6,0,1,1,115.50000901520252,706.4999960809946"></path><path id="kity_path_446" fill="none" stroke="gray"></path></g><path id="node_outline53" fill="none" stroke="none" d="M52.50000746548176,695.4999960809946h46a5,5,0,0,1,5,5v12a5,5,0,0,1,-5,5h-46a5,5,0,0,1,-5,-5v-12a5,5,0,0,1,5,-5z" stroke-width="3"></path><g id="node_text53" fill="black"><text id="kity_text_442" text-rendering="inherit" font-size="12" dy=".8em" y="698.6999961545071" x="57.50000746548176">:hover</text></g></g><g id="minder_node54"><g id="node_expander53" style="cursor: pointer;" display="none"><path id="kity_path_453" fill="white" stroke="gray" d="M115.50000901520252,758.4999976307154A6,6,0,1,1,103.50000901520252,758.4999976307154A6,6,0,1,1,115.50000901520252,758.4999976307154"></path><path id="kity_path_454" fill="none" stroke="gray"></path></g><path id="node_outline54" fill="none" stroke="none" d="M50.50000740587711,747.4999976307154h48a5,5,0,0,1,5,5v12a5,5,0,0,1,-5,5h-48a5,5,0,0,1,-5,-5v-12a5,5,0,0,1,5,-5z" stroke-width="3"></path><g id="node_text54" fill="black"><text id="kity_text_450" text-rendering="inherit" font-size="12" dy=".8em" y="750.6999977042278" x="55.50000740587711">:target</text></g></g><g id="minder_node56"><g id="node_expander55" style="cursor: pointer;"><path id="kity_path_469" fill="white" stroke="gray" d="M229.50001241266727,1174.5000100284815A6,6,0,1,1,217.50001241266727,1174.5000100284815A6,6,0,1,1,229.50001241266727,1174.5000100284815"></path><path id="kity_path_470" fill="none" stroke="gray" d="M219.00001241266727,1174.5000100284815L228.00001241266727,1174.5000100284815"></path></g><path id="node_outline56" fill="none" stroke="none" d="M165.5000108331442,1163.5000100284815h47a5,5,0,0,1,5,5v12a5,5,0,0,1,-5,5h-47a5,5,0,0,1,-5,-5v-12a5,5,0,0,1,5,-5z" stroke-width="3"></path><g id="node_text56" fill="black"><text id="kity_text_466" text-rendering="inherit" font-size="12" dy=".8em" y="1166.700010101994" x="170.5000108331442">逻辑型</text></g></g><g id="minder_node57"><g id="node_expander56" style="cursor: pointer;" display="none"><path id="kity_path_477" fill="white" stroke="gray" d="M132.500009521842,810.4999991804361A6,6,0,1,1,120.500009521842,810.4999991804361A6,6,0,1,1,132.500009521842,810.4999991804361"></path><path id="kity_path_478" fill="none" stroke="gray"></path></g><path id="node_outline57" fill="none" stroke="none" d="M65.50000785291195,799.4999991804361h50a5,5,0,0,1,5,5v12a5,5,0,0,1,-5,5h-50a5,5,0,0,1,-5,-5v-12a5,5,0,0,1,5,-5z" stroke-width="3"></path><g id="node_text57" fill="black"><text id="kity_text_474" text-rendering="inherit" font-size="12" dy=".8em" y="802.6999992539486" x="70.50000785291195">:empty</text></g></g><g id="minder_node58"><g id="node_expander57" style="cursor: pointer;" display="none"><path id="kity_path_485" fill="white" stroke="gray" d="M132.500009521842,862.5000007301569A6,6,0,1,1,120.500009521842,862.5000007301569A6,6,0,1,1,132.500009521842,862.5000007301569"></path><path id="kity_path_486" fill="none" stroke="gray"></path></g><path id="node_outline58" fill="none" stroke="none" d="M42.500007167458534,851.5000007301569h73a5,5,0,0,1,5,5v12a5,5,0,0,1,-5,5h-73a5,5,0,0,1,-5,-5v-12a5,5,0,0,1,5,-5z" stroke-width="3"></path><g id="node_text58" fill="black"><text id="kity_text_482" text-rendering="inherit" font-size="12" dy=".8em" y="854.7000008036694" x="47.500007167458534">:nth-child()</text></g></g><g id="minder_node59"><g id="node_expander58" style="cursor: pointer;" display="none"><path id="kity_path_493" fill="white" stroke="gray" d="M132.500009521842,914.5000022798777A6,6,0,1,1,120.500009521842,914.5000022798777A6,6,0,1,1,132.500009521842,914.5000022798777"></path><path id="kity_path_494" fill="none" stroke="gray"></path></g><path id="node_outline59" fill="none" stroke="none" d="M25.500006660819054,903.5000022798777h90a5,5,0,0,1,5,5v12a5,5,0,0,1,-5,5h-90a5,5,0,0,1,-5,-5v-12a5,5,0,0,1,5,-5z" stroke-width="3"></path><g id="node_text59" fill="black"><text id="kity_text_490" text-rendering="inherit" font-size="12" dy=".8em" y="906.7000023533901" x="30.500006660819054">:nth-last-child</text></g></g><g id="minder_node60"><g id="node_expander59" style="cursor: pointer;" display="none"><path id="kity_path_501" fill="white" stroke="gray" d="M132.500009521842,966.5000038295984A6,6,0,1,1,120.500009521842,966.5000038295984A6,6,0,1,1,132.500009521842,966.5000038295984"></path><path id="kity_path_502" fill="none" stroke="gray"></path></g><path id="node_outline60" fill="none" stroke="none" d="M47.500007316470146,955.5000038295984h68a5,5,0,0,1,5,5v12a5,5,0,0,1,-5,5h-68a5,5,0,0,1,-5,-5v-12a5,5,0,0,1,5,-5z" stroke-width="3"></path><g id="node_text60" fill="black"><text id="kity_text_498" text-rendering="inherit" font-size="12" dy=".8em" y="958.7000039031109" x="52.500007316470146">:first-child</text></g></g><g id="minder_node61"><g id="node_expander60" style="cursor: pointer;" display="none"><path id="kity_path_509" fill="white" stroke="gray" d="M132.500009521842,1018.5000053793192A6,6,0,1,1,120.500009521842,1018.5000053793192A6,6,0,1,1,132.500009521842,1018.5000053793192"></path><path id="kity_path_510" fill="none" stroke="gray"></path></g><path id="node_outline61" fill="none" stroke="none" d="M50.50000740587711,1007.5000053793192h65a5,5,0,0,1,5,5v12a5,5,0,0,1,-5,5h-65a5,5,0,0,1,-5,-5v-12a5,5,0,0,1,5,-5z" stroke-width="3"></path><g id="node_text61" fill="black"><text id="kity_text_506" text-rendering="inherit" font-size="12" dy=".8em" y="1010.7000054528316" x="55.50000740587711">:last-child</text></g></g><g id="minder_node62"><g id="node_expander61" style="cursor: pointer;" display="none"><path id="kity_path_517" fill="white" stroke="gray" d="M132.500009521842,1070.50000692904A6,6,0,1,1,120.500009521842,1070.50000692904A6,6,0,1,1,132.500009521842,1070.50000692904"></path><path id="kity_path_518" fill="none" stroke="gray"></path></g><path id="node_outline62" fill="none" stroke="none" d="M45.5000072568655,1059.50000692904h70a5,5,0,0,1,5,5v12a5,5,0,0,1,-5,5h-70a5,5,0,0,1,-5,-5v-12a5,5,0,0,1,5,-5z" stroke-width="3"></path><g id="node_text62" fill="black"><text id="kity_text_514" text-rendering="inherit" font-size="12" dy=".8em" y="1062.7000070025524" x="50.5000072568655">:only-child</text></g></g><g id="minder_node63"><g id="node_expander62" style="cursor: pointer;" display="none"><path id="kity_path_525" fill="white" stroke="gray" d="M132.500009521842,1122.5000084787607A6,6,0,1,1,120.500009521842,1122.5000084787607A6,6,0,1,1,132.500009521842,1122.5000084787607"></path><path id="kity_path_526" fill="none" stroke="gray"></path></g><path id="node_outline63" fill="none" stroke="none" d="M54.5000075250864,1111.5000084787607h61a5,5,0,0,1,5,5v12a5,5,0,0,1,-5,5h-61a5,5,0,0,1,-5,-5v-12a5,5,0,0,1,5,-5z" stroke-width="3"></path><g id="node_text63" fill="black"><text id="kity_text_522" text-rendering="inherit" font-size="12" dy=".8em" y="1114.7000085522732" x="59.5000075250864">:not&#xa0;伪类</text></g></g><g id="minder_node64"><g id="node_expander63" style="cursor: pointer;" display="none"><path id="kity_path_533" fill="white" stroke="gray" d="M132.500009521842,1174.5000100284815A6,6,0,1,1,120.500009521842,1174.5000100284815A6,6,0,1,1,132.500009521842,1174.5000100284815"></path><path id="kity_path_534" fill="none" stroke="gray"></path></g><path id="node_outline64" fill="none" stroke="none" d="M67.5000079125166,1163.5000100284815h48a5,5,0,0,1,5,5v12a5,5,0,0,1,-5,5h-48a5,5,0,0,1,-5,-5v-12a5,5,0,0,1,5,-5z" stroke-width="3"></path><g id="node_text64" fill="black"><text id="kity_text_530" text-rendering="inherit" font-size="12" dy=".8em" y="1166.700010101994" x="72.5000079125166">:where</text></g></g><g id="minder_node65"><g id="node_expander64" style="cursor: pointer;" display="none"><path id="kity_path_541" fill="white" stroke="gray" d="M132.500009521842,1226.5000115782022A6,6,0,1,1,120.500009521842,1226.5000115782022A6,6,0,1,1,132.500009521842,1226.5000115782022"></path><path id="kity_path_542" fill="none" stroke="gray"></path></g><path id="node_outline65" fill="none" stroke="none" d="M83.50000838935375,1215.5000115782022h32a5,5,0,0,1,5,5v12a5,5,0,0,1,-5,5h-32a5,5,0,0,1,-5,-5v-12a5,5,0,0,1,5,-5z" stroke-width="3"></path><g id="node_text65" fill="black"><text id="kity_text_538" text-rendering="inherit" font-size="12" dy=".8em" y="1218.7000116517147" x="88.50000838935375">:has</text></g></g><g id="minder_node66"><g id="node_expander65" style="cursor: pointer;" display="none"><path id="kity_path_549" fill="white" stroke="gray" d="M226.5000123232603,1278.500013127923A6,6,0,1,1,214.5000123232603,1278.500013127923A6,6,0,1,1,226.5000123232603,1278.500013127923"></path><path id="kity_path_550" fill="none" stroke="gray"></path></g><path id="node_outline66" fill="none" stroke="none" d="M156.5000105649233,1267.500013127923h53a5,5,0,0,1,5,5v12a5,5,0,0,1,-5,5h-53a5,5,0,0,1,-5,-5v-12a5,5,0,0,1,5,-5z" stroke-width="3"></path><g id="node_text66" fill="black"><text id="kity_text_546" text-rendering="inherit" font-size="12" dy=".8em" y="1270.7000132014355" x="161.5000105649233">::before</text></g></g><g id="minder_node67"><g id="node_expander66" style="cursor: pointer;" display="none"><path id="kity_path_557" fill="white" stroke="gray" d="M226.5000123232603,1330.5000146776438A6,6,0,1,1,214.5000123232603,1330.5000146776438A6,6,0,1,1,226.5000123232603,1330.5000146776438"></path><path id="kity_path_558" fill="none" stroke="gray"></path></g><path id="node_outline67" fill="none" stroke="none" d="M166.5000108629465,1319.5000146776438h43a5,5,0,0,1,5,5v12a5,5,0,0,1,-5,5h-43a5,5,0,0,1,-5,-5v-12a5,5,0,0,1,5,-5z" stroke-width="3"></path><g id="node_text67" fill="black"><text id="kity_text_554" text-rendering="inherit" font-size="12" dy=".8em" y="1322.7000147511562" x="171.5000108629465">::after</text></g></g><g id="minder_node68"><g id="node_expander67" style="cursor: pointer;" display="none"><path id="kity_path_565" fill="white" stroke="gray" d="M226.5000123232603,1382.5000162273645A6,6,0,1,1,214.5000123232603,1382.5000162273645A6,6,0,1,1,226.5000123232603,1382.5000162273645"></path><path id="kity_path_566" fill="none" stroke="gray"></path></g><path id="node_outline68" fill="none" stroke="none" d="M145.50001023709774,1371.5000162273645h64a5,5,0,0,1,5,5v12a5,5,0,0,1,-5,5h-64a5,5,0,0,1,-5,-5v-12a5,5,0,0,1,5,-5z" stroke-width="3"></path><g id="node_text68" fill="black"><text id="kity_text_562" text-rendering="inherit" font-size="12" dy=".8em" y="1374.700016300877" x="150.50001023709774">::first-line</text></g></g><g id="minder_node69"><g id="node_expander68" style="cursor: pointer;" display="none"><path id="kity_path_573" fill="white" stroke="gray" d="M226.5000123232603,1434.5000177770853A6,6,0,1,1,214.5000123232603,1434.5000177770853A6,6,0,1,1,226.5000123232603,1434.5000177770853"></path><path id="kity_path_574" fill="none" stroke="gray"></path></g><path id="node_outline69" fill="none" stroke="none" d="M135.50000993907452,1423.5000177770853h74a5,5,0,0,1,5,5v12a5,5,0,0,1,-5,5h-74a5,5,0,0,1,-5,-5v-12a5,5,0,0,1,5,-5z" stroke-width="3"></path><g id="node_text69" fill="black"><text id="kity_text_570" text-rendering="inherit" font-size="12" dy=".8em" y="1426.7000178505978" x="140.50000993907452">::first-letter</text></g></g></g></g></svg>